<svg xmlns="http://www.w3.org/2000/svg" viewBox="0 0 1600 640" preserveAspectRatio="xMidYMid slice" role="img"><defs><pattern id="t1" width="14" height="14" patternUnits="userSpaceOnUse"><circle cx="7" cy="7" r="1.1" fill="#111"/></pattern><pattern id="t2" width="10" height="10" patternUnits="userSpaceOnUse"><circle cx="5" cy="5" r="1.5" fill="#111"/></pattern><pattern id="t3" width="7" height="7" patternUnits="userSpaceOnUse"><circle cx="3.5" cy="3.5" r="1.8" fill="#111"/></pattern><pattern id="hach" width="9" height="9" patternUnits="userSpaceOnUse" patternTransform="rotate(35)"><line x1="0" y1="0" x2="0" y2="9" stroke="#111" stroke-width="1.6"/></pattern><linearGradient id="fondu" x1="0" y1="0" x2="0" y2="1"><stop offset="0" stop-color="#111" stop-opacity="0"/><stop offset="1" stop-color="#111" stop-opacity="1"/></linearGradient></defs><rect width="100%" height="100%" fill="#fff"/><rect width="100%" height="100%" fill="#111"/><rect x="128" y="52" width="188" height="588" fill="#fff"/><rect x="316" y="52" width="16" height="588" fill="#111"/><path d="M128 40 L332 52 L332 640 L128 640 Z" fill="none" stroke="#fff" stroke-width="3" opacity=".5"/><path d="M332 496 L332 640 L1180 640 L640 496 Z" fill="url(#t2)" opacity=".45"/><path d="M332 520 L332 640 L900 640 L560 520 Z" fill="url(#t3)" opacity=".3"/><circle cx="1230" cy="330" r="330" fill="url(#t1)" opacity=".30"/><circle cx="1300" cy="356" r="212" fill="url(#t2)" opacity=".34"/><circle cx="1392" cy="384" r="104" fill="url(#t3)" opacity=".40"/><rect x="700" y="470" width="640" height="22" fill="#fff"/><rect x="716" y="492" width="16" height="112" fill="#fff"/><rect x="1308" y="492" width="16" height="112" fill="#fff"/><rect x="1397" y="396" width="10" height="74" fill="#fff"/><path d="M1360 396 L1444 396 L1428 350 L1376 350 Z" fill="#fff"/><g fill="#111"><ellipse cx="1124.44" cy="327.6" rx="11.7907" ry="12.816"/><rect x="1123.64" y="335.61" width="8.71488" height="7.12"/><path d="M1112.87 339.17 L1142.24 342.73 L1145.44 413.93 L1115.18 410.37 Z"/><path d="M1139.04 347.18 L1147.22 352.52 L1152.92 405.92 L1144.38 404.14 Z"/><rect x="1114.65" y="410.37" width="41.83" height="18.69" rx="6.23"/><rect x="1147.22" y="427.28" width="11.036" height="42.72"/><rect x="1144.38" y="464.66" width="20.47" height="5.696" rx="2.136"/></g></svg>