<svg xmlns="http://www.w3.org/2000/svg" viewBox="0 0 1600 640" preserveAspectRatio="xMidYMid slice" role="img"><defs><pattern id="t1" width="14" height="14" patternUnits="userSpaceOnUse"><circle cx="7" cy="7" r="1.1" fill="#141C22"/></pattern><pattern id="t2" width="10" height="10" patternUnits="userSpaceOnUse"><circle cx="5" cy="5" r="1.5" fill="#141C22"/></pattern><pattern id="t3" width="7" height="7" patternUnits="userSpaceOnUse"><circle cx="3.5" cy="3.5" r="1.8" fill="#141C22"/></pattern><pattern id="hach" width="9" height="9" patternUnits="userSpaceOnUse" patternTransform="rotate(35)"><line x1="0" y1="0" x2="0" y2="9" stroke="#141C22" stroke-width="1.6"/></pattern><linearGradient id="fondu" x1="0" y1="0" x2="0" y2="1"><stop offset="0" stop-color="#141C22" stop-opacity="0"/><stop offset="1" stop-color="#141C22" stop-opacity="1"/></linearGradient></defs><rect width="100%" height="100%" fill="#E9ECEE"/><rect x="0" y="0" width="1600" height="340" fill="url(#t1)" opacity="0.5"/><path d="M0 640 L0 300 Q420 250 760 330 Q1180 430 1600 330 L1600 640 Z" fill="#141C22"/><path d="M0 300 Q420 250 760 330 Q1180 430 1600 330" stroke="#E9ECEE" stroke-width="4" fill="none" opacity=".6"/><path d="M260 320 q40 -190 100 -230 q60 60 100 230 z" fill="url(#t2)" opacity=".5"/><path d="M700 320 q52 -190 130 -230 q78 60 130 230 z" fill="url(#t2)" opacity=".5"/><path d="M1180 320 q44 -190 110 -230 q66 60 110 230 z" fill="url(#t2)" opacity=".5"/><rect x="120" y="372" width="26" height="7" rx="3.5" fill="#E9ECEE" opacity=".95"/><rect x="160" y="374.1" width="26" height="7" rx="3.5" fill="#E9ECEE" opacity=".95"/><rect x="200" y="376.2" width="26" height="7" rx="3.5" fill="#E9ECEE" opacity=".95"/><rect x="240" y="378.3" width="26" height="7" rx="3.5" fill="#E9ECEE" opacity=".95"/><rect x="280" y="380.4" width="26" height="7" rx="3.5" fill="#E9ECEE" opacity=".95"/><rect x="320" y="382.5" width="26" height="7" rx="3.5" fill="#E9ECEE" opacity=".95"/><rect x="360" y="384.6" width="26" height="7" rx="3.5" fill="#E9ECEE" opacity=".95"/><rect x="400" y="386.7" width="26" height="7" rx="3.5" fill="#E9ECEE" opacity=".95"/><rect x="440" y="388.8" width="26" height="7" rx="3.5" fill="#E9ECEE" opacity=".95"/><rect x="480" y="390.9" width="26" height="7" rx="3.5" fill="#E9ECEE" opacity=".95"/><rect x="520" y="393" width="26" height="7" rx="3.5" fill="#E9ECEE" opacity=".95"/><rect x="560" y="395.1" width="26" height="7" rx="3.5" fill="#E9ECEE" opacity=".95"/><rect x="600" y="397.2" width="26" height="7" rx="3.5" fill="#E9ECEE" opacity=".95"/><rect x="640" y="399.3" width="26" height="7" rx="3.5" fill="#E9ECEE" opacity=".95"/><rect x="680" y="401.4" width="26" height="7" rx="3.5" fill="#E9ECEE" opacity=".95"/><rect x="720" y="403.5" width="26" height="7" rx="3.5" fill="#E9ECEE" opacity=".95"/><rect x="760" y="405.6" width="26" height="7" rx="3.5" fill="#E9ECEE" opacity=".95"/><rect x="800" y="407.7" width="26" height="7" rx="3.5" fill="#E9ECEE" opacity=".95"/><rect x="840" y="409.8" width="26" height="7" rx="3.5" fill="#E9ECEE" opacity=".95"/><rect x="880" y="411.9" width="26" height="7" rx="3.5" fill="#E9ECEE" opacity=".95"/><rect x="920" y="414" width="26" height="7" rx="3.5" fill="#E9ECEE" opacity=".95"/><rect x="960" y="416.1" width="26" height="7" rx="3.5" fill="#E9ECEE" opacity=".95"/><rect x="1000" y="418.2" width="26" height="7" rx="3.5" fill="#E9ECEE" opacity=".95"/><rect x="1040" y="420.3" width="26" height="7" rx="3.5" fill="#E9ECEE" opacity=".95"/><rect x="1080" y="422.4" width="26" height="7" rx="3.5" fill="#E9ECEE" opacity=".95"/><rect x="1120" y="424.5" width="26" height="7" rx="3.5" fill="#E9ECEE" opacity=".95"/><rect x="1160" y="426.6" width="26" height="7" rx="3.5" fill="#E9ECEE" opacity=".95"/><rect x="1200" y="428.7" width="26" height="7" rx="3.5" fill="#E9ECEE" opacity=".95"/><rect x="1240" y="430.8" width="26" height="7" rx="3.5" fill="#E9ECEE" opacity=".95"/><rect x="1280" y="432.9" width="26" height="7" rx="3.5" fill="#E9ECEE" opacity=".95"/><rect x="1320" y="435" width="26" height="7" rx="3.5" fill="#E9ECEE" opacity=".95"/><rect x="1360" y="437.1" width="26" height="7" rx="3.5" fill="#E9ECEE" opacity=".95"/><rect x="1400" y="439.2" width="26" height="7" rx="3.5" fill="#E9ECEE" opacity=".95"/><rect x="1440" y="441.3" width="26" height="7" rx="3.5" fill="#E9ECEE" opacity=".95"/><g fill="#141C22"><circle cx="1372" cy="426.8" r="8.64"/><path d="M1362.28 433.28 L1381.72 436.52 L1383.88 454.88 L1364.44 453.8 Z"/><rect x="1365.52" y="452.72" width="25.92" height="8.1" rx="2.7"/><rect x="1384.96" y="453.8" width="7.56" height="16.2"/></g><rect x="1300" y="470" width="150" height="9" fill="#E9ECEE" opacity=".8"/></svg>