<svg xmlns="http://www.w3.org/2000/svg" viewBox="0 0 1600 640" preserveAspectRatio="xMidYMid slice" role="img"><defs><pattern id="t1" width="14" height="14" patternUnits="userSpaceOnUse"><circle cx="7" cy="7" r="1.1" fill="#141C22"/></pattern><pattern id="t2" width="10" height="10" patternUnits="userSpaceOnUse"><circle cx="5" cy="5" r="1.5" fill="#141C22"/></pattern><pattern id="t3" width="7" height="7" patternUnits="userSpaceOnUse"><circle cx="3.5" cy="3.5" r="1.8" fill="#141C22"/></pattern><pattern id="hach" width="9" height="9" patternUnits="userSpaceOnUse" patternTransform="rotate(35)"><line x1="0" y1="0" x2="0" y2="9" stroke="#141C22" stroke-width="1.6"/></pattern><linearGradient id="fondu" x1="0" y1="0" x2="0" y2="1"><stop offset="0" stop-color="#141C22" stop-opacity="0"/><stop offset="1" stop-color="#141C22" stop-opacity="1"/></linearGradient></defs><rect width="100%" height="100%" fill="#E9ECEE"/><rect x="0" y="0" width="1600" height="470" fill="url(#t1)" opacity="0.38"/><rect x="0" y="470" width="1600" height="170" fill="url(#t2)" opacity=".35"/><line x1="0" y1="470" x2="1600" y2="470" stroke="#141C22" stroke-width="4"/><circle cx="464" cy="570" r="2" fill="#141C22" opacity=".5"/><circle cx="258" cy="525" r="2.6" fill="#141C22" opacity=".5"/><circle cx="89" cy="497" r="1.5" fill="#141C22" opacity=".5"/><circle cx="506" cy="605" r="1.5" fill="#141C22" opacity=".5"/><circle cx="820" cy="483" r="2" fill="#141C22" opacity=".5"/><circle cx="998" cy="592" r="2" fill="#141C22" opacity=".5"/><circle cx="1013" cy="622" r="1.5" fill="#141C22" opacity=".5"/><circle cx="824" cy="498" r="2" fill="#141C22" opacity=".5"/><circle cx="479" cy="481" r="2.6" fill="#141C22" opacity=".5"/><circle cx="546" cy="609" r="2" fill="#141C22" opacity=".5"/><circle cx="971" cy="573" r="2.6" fill="#141C22" opacity=".5"/><circle cx="232" cy="542" r="1.5" fill="#141C22" opacity=".5"/><circle cx="129" cy="574" r="2.6" fill="#141C22" opacity=".5"/><circle cx="772" cy="503" r="2.6" fill="#141C22" opacity=".5"/><circle cx="118" cy="562" r="1.5" fill="#141C22" opacity=".5"/><circle cx="1415" cy="498" r="2" fill="#141C22" opacity=".5"/><circle cx="1330" cy="608" r="1.5" fill="#141C22" opacity=".5"/><circle cx="1190" cy="512" r="2.6" fill="#141C22" opacity=".5"/><circle cx="131" cy="614" r="1.5" fill="#141C22" opacity=".5"/><circle cx="1000" cy="525" r="1.5" fill="#141C22" opacity=".5"/><circle cx="1185" cy="592" r="2.6" fill="#141C22" opacity=".5"/><circle cx="1196" cy="589" r="2" fill="#141C22" opacity=".5"/><circle cx="1141" cy="567" r="2" fill="#141C22" opacity=".5"/><circle cx="276" cy="516" r="2.6" fill="#141C22" opacity=".5"/><circle cx="199" cy="612" r="2.6" fill="#141C22" opacity=".5"/><circle cx="642" cy="567" r="2.6" fill="#141C22" opacity=".5"/><circle cx="1013" cy="604" r="2.6" fill="#141C22" opacity=".5"/><circle cx="404" cy="555" r="1.5" fill="#141C22" opacity=".5"/><circle cx="728" cy="611" r="2" fill="#141C22" opacity=".5"/><circle cx="1044" cy="494" r="2.6" fill="#141C22" opacity=".5"/><circle cx="1436" cy="615" r="1.5" fill="#141C22" opacity=".5"/><circle cx="704" cy="538" r="1.5" fill="#141C22" opacity=".5"/><circle cx="605" cy="563" r="1.5" fill="#141C22" opacity=".5"/><circle cx="546" cy="484" r="2" fill="#141C22" opacity=".5"/><circle cx="521" cy="572" r="2" fill="#141C22" opacity=".5"/><circle cx="1444" cy="582" r="1.5" fill="#141C22" opacity=".5"/><circle cx="1346" cy="577" r="1.5" fill="#141C22" opacity=".5"/><circle cx="340" cy="482" r="1.5" fill="#141C22" opacity=".5"/><circle cx="1569" cy="517" r="2" fill="#141C22" opacity=".5"/><circle cx="238" cy="479" r="2" fill="#141C22" opacity=".5"/><circle cx="700" cy="519" r="2.6" fill="#141C22" opacity=".5"/><circle cx="892" cy="535" r="1.5" fill="#141C22" opacity=".5"/><circle cx="839" cy="620" r="2" fill="#141C22" opacity=".5"/><circle cx="833" cy="582" r="1.5" fill="#141C22" opacity=".5"/><circle cx="1205" cy="493" r="2" fill="#141C22" opacity=".5"/><circle cx="1468" cy="500" r="1.5" fill="#141C22" opacity=".5"/><circle cx="174" cy="503" r="2.6" fill="#141C22" opacity=".5"/><circle cx="1079" cy="568" r="1.5" fill="#141C22" opacity=".5"/><circle cx="1034" cy="600" r="2.6" fill="#141C22" opacity=".5"/><circle cx="304" cy="630" r="1.5" fill="#141C22" opacity=".5"/><circle cx="388" cy="480" r="1.5" fill="#141C22" opacity=".5"/><circle cx="697" cy="574" r="2.6" fill="#141C22" opacity=".5"/><circle cx="1174" cy="506" r="2.6" fill="#141C22" opacity=".5"/><circle cx="613" cy="565" r="2" fill="#141C22" opacity=".5"/><circle cx="749" cy="476" r="2.6" fill="#141C22" opacity=".5"/><circle cx="1021" cy="529" r="1.5" fill="#141C22" opacity=".5"/><circle cx="1264" cy="484" r="2.6" fill="#141C22" opacity=".5"/><circle cx="352" cy="521" r="2" fill="#141C22" opacity=".5"/><circle cx="882" cy="589" r="1.5" fill="#141C22" opacity=".5"/><circle cx="170" cy="527" r="2.6" fill="#141C22" opacity=".5"/><circle cx="458" cy="603" r="2" fill="#141C22" opacity=".5"/><circle cx="316" cy="573" r="1.5" fill="#141C22" opacity=".5"/><circle cx="222" cy="624" r="2.6" fill="#141C22" opacity=".5"/><circle cx="927" cy="508" r="2.6" fill="#141C22" opacity=".5"/><circle cx="900" cy="607" r="2.6" fill="#141C22" opacity=".5"/><circle cx="185" cy="596" r="2.6" fill="#141C22" opacity=".5"/><circle cx="806" cy="568" r="2" fill="#141C22" opacity=".5"/><circle cx="461" cy="489" r="1.5" fill="#141C22" opacity=".5"/><circle cx="100" cy="590" r="1.5" fill="#141C22" opacity=".5"/><circle cx="221" cy="530" r="2.6" fill="#141C22" opacity=".5"/><circle cx="9" cy="629" r="2.6" fill="#141C22" opacity=".5"/><circle cx="46" cy="569" r="2" fill="#141C22" opacity=".5"/><circle cx="1081" cy="499" r="2.6" fill="#141C22" opacity=".5"/><circle cx="1547" cy="629" r="2.6" fill="#141C22" opacity=".5"/><circle cx="1444" cy="621" r="1.5" fill="#141C22" opacity=".5"/><circle cx="1027" cy="534" r="2" fill="#141C22" opacity=".5"/><circle cx="1076" cy="574" r="2.6" fill="#141C22" opacity=".5"/><circle cx="1064" cy="526" r="1.5" fill="#141C22" opacity=".5"/><circle cx="593" cy="632" r="2" fill="#141C22" opacity=".5"/><circle cx="163" cy="558" r="2" fill="#141C22" opacity=".5"/><circle cx="458" cy="551" r="1.5" fill="#141C22" opacity=".5"/><circle cx="1120" cy="583" r="2.6" fill="#141C22" opacity=".5"/><circle cx="756" cy="558" r="2.6" fill="#141C22" opacity=".5"/><circle cx="618" cy="636" r="2" fill="#141C22" opacity=".5"/><circle cx="605" cy="503" r="1.5" fill="#141C22" opacity=".5"/><circle cx="993" cy="570" r="2" fill="#141C22" opacity=".5"/><circle cx="1198" cy="555" r="1.5" fill="#141C22" opacity=".5"/><circle cx="594" cy="577" r="2.6" fill="#141C22" opacity=".5"/><circle cx="785" cy="610" r="2.6" fill="#141C22" opacity=".5"/><circle cx="1491" cy="567" r="2.6" fill="#141C22" opacity=".5"/><circle cx="1238" cy="625" r="2" fill="#141C22" opacity=".5"/><circle cx="1378" cy="585" r="1.5" fill="#141C22" opacity=".5"/><circle cx="1003" cy="611" r="2.6" fill="#141C22" opacity=".5"/><circle cx="167" cy="544" r="1.5" fill="#141C22" opacity=".5"/><circle cx="140" cy="603" r="2.6" fill="#141C22" opacity=".5"/><circle cx="554" cy="583" r="1.5" fill="#141C22" opacity=".5"/><circle cx="1279" cy="546" r="2" fill="#141C22" opacity=".5"/><circle cx="561" cy="605" r="2" fill="#141C22" opacity=".5"/><circle cx="567" cy="581" r="1.5" fill="#141C22" opacity=".5"/><circle cx="740" cy="538" r="1.5" fill="#141C22" opacity=".5"/><circle cx="1033" cy="593" r="1.5" fill="#141C22" opacity=".5"/><circle cx="479" cy="628" r="2.6" fill="#141C22" opacity=".5"/><circle cx="400" cy="570" r="2" fill="#141C22" opacity=".5"/><circle cx="1599" cy="503" r="1.5" fill="#141C22" opacity=".5"/><circle cx="794" cy="497" r="2.6" fill="#141C22" opacity=".5"/><circle cx="349" cy="621" r="2" fill="#141C22" opacity=".5"/><circle cx="92" cy="511" r="1.5" fill="#141C22" opacity=".5"/><circle cx="1249" cy="524" r="2.6" fill="#141C22" opacity=".5"/><circle cx="541" cy="498" r="1.5" fill="#141C22" opacity=".5"/><circle cx="947" cy="593" r="2.6" fill="#141C22" opacity=".5"/><circle cx="578" cy="620" r="1.5" fill="#141C22" opacity=".5"/><circle cx="258" cy="631" r="2" fill="#141C22" opacity=".5"/><circle cx="1336" cy="492" r="2" fill="#141C22" opacity=".5"/><circle cx="79" cy="497" r="1.5" fill="#141C22" opacity=".5"/><circle cx="1338" cy="569" r="1.5" fill="#141C22" opacity=".5"/><circle cx="472" cy="485" r="2.6" fill="#141C22" opacity=".5"/><circle cx="653" cy="532" r="2" fill="#141C22" opacity=".5"/><circle cx="1523" cy="567" r="2" fill="#141C22" opacity=".5"/><circle cx="135" cy="609" r="1.5" fill="#141C22" opacity=".5"/><circle cx="1477" cy="632" r="2" fill="#141C22" opacity=".5"/><g fill="#141C22"><path d="M845.428 416.99 L844.109 432.8 L846.155 439 L846.544 441.79 L846.98 470 L850.8 470 L852 452.33 L853.2 470 L857.02 470 L857.456 441.79 L858.738 439 L861.082 432.8 L860.06 416.99 Z"/><rect x="851.077" y="415.13" width="3.33312" height="2.79"/><ellipse cx="852.93" cy="412.03" rx="3.65056" ry="3.968"/></g><g fill="#141C22"><path d="M917.746 424.685 L916.745 438.2 L918.622 443.5 L919.336 445.885 L919.709 470 L922.974 470 L924 454.895 L925.026 470 L928.291 470 L928.664 445.885 L929.378 443.5 L931.255 438.2 L930.254 424.685 Z"/><rect x="922.575" y="423.095" width="2.84928" height="2.385"/><ellipse cx="924" cy="420.445" rx="3.12064" ry="3.392"/></g><line x1="856" y1="502" x2="920" y2="502" stroke="#141C22" stroke-width="1.6" opacity=".3"/><rect x="184" y="330" width="5" height="140" fill="#141C22" opacity=".85"/><line x1="164" y1="330" x2="210" y2="330" stroke="#141C22" stroke-width="4" opacity=".85"/></svg>