<svg xmlns="http://www.w3.org/2000/svg" viewBox="0 0 1600 640" preserveAspectRatio="xMidYMid slice" role="img"><defs><pattern id="t1" width="14" height="14" patternUnits="userSpaceOnUse"><circle cx="7" cy="7" r="1.1" fill="#141C22"/></pattern><pattern id="t2" width="10" height="10" patternUnits="userSpaceOnUse"><circle cx="5" cy="5" r="1.5" fill="#141C22"/></pattern><pattern id="t3" width="7" height="7" patternUnits="userSpaceOnUse"><circle cx="3.5" cy="3.5" r="1.8" fill="#141C22"/></pattern><pattern id="hach" width="9" height="9" patternUnits="userSpaceOnUse" patternTransform="rotate(35)"><line x1="0" y1="0" x2="0" y2="9" stroke="#141C22" stroke-width="1.6"/></pattern><linearGradient id="fondu" x1="0" y1="0" x2="0" y2="1"><stop offset="0" stop-color="#141C22" stop-opacity="0"/><stop offset="1" stop-color="#141C22" stop-opacity="1"/></linearGradient></defs><rect width="100%" height="100%" fill="#E9ECEE"/><rect x="0" y="0" width="1600" height="640" fill="url(#t1)" opacity="0.2"/><line x1="60" y1="400" x2="1540" y2="400" stroke="#141C22" stroke-width="3"/><g fill="#141C22"><path d="M1321.27 336.73 L1319.87 355.6 L1322.49 363 L1323.49 366.33 L1324.01 400 L1328.57 400 L1330 378.91 L1331.43 400 L1335.99 400 L1336.51 366.33 L1337.51 363 L1340.13 355.6 L1338.73 336.73 Z"/><rect x="1328.01" y="334.51" width="3.97824" height="3.33"/><ellipse cx="1330" cy="330.81" rx="4.35712" ry="4.736"/></g><g fill="#141C22"><path d="M1386.57 346.135 L1385.38 362.2 L1387.61 368.5 L1388.46 371.335 L1388.9 400 L1392.78 400 L1394 382.045 L1395.22 400 L1399.1 400 L1399.54 371.335 L1400.39 368.5 L1402.62 362.2 L1401.43 346.135 Z"/><rect x="1392.31" y="344.245" width="3.38688" height="2.835"/><ellipse cx="1394" cy="341.095" rx="3.70944" ry="4.032"/></g><line x1="1330" y1="424" x2="1394" y2="424" stroke="#141C22" stroke-width="2"/><text x="1362" y="452" text-anchor="middle" fill="#141C22" font-family="ui-monospace,Consolas,monospace" font-size="19" letter-spacing="1.6" opacity=".9">3 M</text><rect x="770" y="270" width="6" height="130" fill="#141C22"/><line x1="742" y1="270" x2="804" y2="270" stroke="#141C22" stroke-width="4"/><text x="773" y="252" text-anchor="middle" fill="#141C22" font-family="ui-monospace,Consolas,monospace" font-size="19" letter-spacing="1.6" opacity=".9">MICROS</text><line x1="776" y1="482" x2="1326" y2="482" stroke="#141C22" stroke-width="2" stroke-dasharray="7 7" opacity=".7"/><text x="1050" y="508" text-anchor="middle" fill="#141C22" font-family="ui-monospace,Consolas,monospace" font-size="19" letter-spacing="1.6" opacity=".9">800 M</text><rect x="120" y="354" width="96" height="46" fill="#141C22"/><text x="168" y="338" text-anchor="middle" fill="#141C22" font-family="ui-monospace,Consolas,monospace" font-size="19" letter-spacing="1.6" opacity=".9">POSTE</text><line x1="168" y1="554" x2="1326" y2="554" stroke="#141C22" stroke-width="2" stroke-dasharray="7 7" opacity=".7"/><text x="740" y="580" text-anchor="middle" fill="#141C22" font-family="ui-monospace,Consolas,monospace" font-size="19" letter-spacing="1.6" opacity=".9">4 KM</text><text x="60" y="92" text-anchor="start" fill="#141C22" font-family="ui-monospace,Consolas,monospace" font-size="19" letter-spacing="1.6" opacity=".9">DISPOSITIF DU JOUR 9  —  COMTÉ DE LUNA</text></svg>