<svg xmlns="http://www.w3.org/2000/svg" viewBox="0 0 1600 640" preserveAspectRatio="xMidYMid slice" role="img"><defs><pattern id="t1" width="14" height="14" patternUnits="userSpaceOnUse"><circle cx="7" cy="7" r="1.1" fill="#141C22"/></pattern><pattern id="t2" width="10" height="10" patternUnits="userSpaceOnUse"><circle cx="5" cy="5" r="1.5" fill="#141C22"/></pattern><pattern id="t3" width="7" height="7" patternUnits="userSpaceOnUse"><circle cx="3.5" cy="3.5" r="1.8" fill="#141C22"/></pattern><pattern id="hach" width="9" height="9" patternUnits="userSpaceOnUse" patternTransform="rotate(35)"><line x1="0" y1="0" x2="0" y2="9" stroke="#141C22" stroke-width="1.6"/></pattern><linearGradient id="fondu" x1="0" y1="0" x2="0" y2="1"><stop offset="0" stop-color="#141C22" stop-opacity="0"/><stop offset="1" stop-color="#141C22" stop-opacity="1"/></linearGradient></defs><rect width="100%" height="100%" fill="#E9ECEE"/><rect x="0" y="0" width="1600" height="640" fill="url(#t1)" opacity="0.28"/><rect x="0" y="560" width="1600" height="80" fill="#141C22"/><path d="M0 560 L1220 300 M1600 560 L1220 300" stroke="#141C22" stroke-width="3" opacity=".5" fill="none"/><rect x="120" y="40" width="420" height="14" fill="#141C22" opacity=".7"/><rect x="900" y="30" width="420" height="14" fill="#141C22" opacity=".5"/><rect x="1120" y="120" width="240" height="440" fill="#141C22"/><rect x="1120" y="120" width="240" height="440" fill="none" stroke="#E9ECEE" stroke-width="4" opacity=".4"/><circle cx="1180" cy="300" r="17" fill="#E9ECEE"/><circle cx="1180" cy="300" r="17" fill="none" stroke="#141C22" stroke-width="3"/><circle cx="1300" cy="300" r="17" fill="#E9ECEE"/><circle cx="1300" cy="300" r="17" fill="none" stroke="#141C22" stroke-width="3"/><g fill="#141C22"><path d="M1069.14 481.34 L1067.41 504.8 L1070.66 514 L1071.9 518.14 L1072.55 560 L1078.22 560 L1080 533.78 L1081.78 560 L1087.45 560 L1088.1 518.14 L1089.34 514 L1092.59 504.8 L1090.86 481.34 Z"/><rect x="1077.53" y="478.58" width="4.94592" height="4.14"/><ellipse cx="1080" cy="473.98" rx="5.41696" ry="5.888"/></g><g fill="#141C22"><path d="M990.796 493.31 L989.323 513.2 L992.085 521 L993.136 524.51 L993.685 560 L998.49 560 L1000 537.77 L1001.51 560 L1006.31 560 L1006.86 524.51 L1007.92 521 L1010.68 513.2 L1009.2 493.31 Z"/><rect x="997.903" y="490.97" width="4.19328" height="3.51"/><ellipse cx="1000" cy="487.07" rx="4.59264" ry="4.992"/></g></svg>