<svg xmlns="http://www.w3.org/2000/svg" viewBox="0 0 1600 640" preserveAspectRatio="xMidYMid slice" role="img"><defs><pattern id="t1" width="14" height="14" patternUnits="userSpaceOnUse"><circle cx="7" cy="7" r="1.1" fill="#111"/></pattern><pattern id="t2" width="10" height="10" patternUnits="userSpaceOnUse"><circle cx="5" cy="5" r="1.5" fill="#111"/></pattern><pattern id="t3" width="7" height="7" patternUnits="userSpaceOnUse"><circle cx="3.5" cy="3.5" r="1.8" fill="#111"/></pattern><pattern id="hach" width="9" height="9" patternUnits="userSpaceOnUse" patternTransform="rotate(35)"><line x1="0" y1="0" x2="0" y2="9" stroke="#111" stroke-width="1.6"/></pattern><linearGradient id="fondu" x1="0" y1="0" x2="0" y2="1"><stop offset="0" stop-color="#111" stop-opacity="0"/><stop offset="1" stop-color="#111" stop-opacity="1"/></linearGradient></defs><rect width="100%" height="100%" fill="#fff"/><rect x="0" y="0" width="1600" height="452" fill="url(#t1)" opacity="0.4"/><line x1="0" y1="452" x2="1600" y2="452" stroke="#111" stroke-width="3"/><rect x="0" y="452" width="1600" height="188" fill="url(#t2)" opacity=".28"/><line x1="40" y1="506" x2="53" y2="502" stroke="#111" stroke-width="1.4" opacity=".45"/><line x1="1498" y1="514" x2="1511" y2="510" stroke="#111" stroke-width="1.4" opacity=".45"/><line x1="800" y1="540" x2="813" y2="536" stroke="#111" stroke-width="1.4" opacity=".45"/><line x1="13" y1="488" x2="26" y2="484" stroke="#111" stroke-width="1.4" opacity=".45"/><line x1="34" y1="498" x2="47" y2="494" stroke="#111" stroke-width="1.4" opacity=".45"/><line x1="214" y1="493" x2="227" y2="489" stroke="#111" stroke-width="1.4" opacity=".45"/><line x1="241" y1="475" x2="254" y2="471" stroke="#111" stroke-width="1.4" opacity=".45"/><line x1="1342" y1="540" x2="1355" y2="536" stroke="#111" stroke-width="1.4" opacity=".45"/><line x1="755" y1="621" x2="768" y2="617" stroke="#111" stroke-width="1.4" opacity=".45"/><line x1="124" y1="507" x2="137" y2="503" stroke="#111" stroke-width="1.4" opacity=".45"/><line x1="1190" y1="521" x2="1203" y2="517" stroke="#111" stroke-width="1.4" opacity=".45"/><line x1="801" y1="538" x2="814" y2="534" stroke="#111" stroke-width="1.4" opacity=".45"/><line x1="1272" y1="499" x2="1285" y2="495" stroke="#111" stroke-width="1.4" opacity=".45"/><line x1="1286" y1="532" x2="1299" y2="528" stroke="#111" stroke-width="1.4" opacity=".45"/><line x1="838" y1="466" x2="851" y2="462" stroke="#111" stroke-width="1.4" opacity=".45"/><line x1="955" y1="570" x2="968" y2="566" stroke="#111" stroke-width="1.4" opacity=".45"/><line x1="1098" y1="518" x2="1111" y2="514" stroke="#111" stroke-width="1.4" opacity=".45"/><line x1="529" y1="502" x2="542" y2="498" stroke="#111" stroke-width="1.4" opacity=".45"/><line x1="1164" y1="466" x2="1177" y2="462" stroke="#111" stroke-width="1.4" opacity=".45"/><line x1="205" y1="465" x2="218" y2="461" stroke="#111" stroke-width="1.4" opacity=".45"/><line x1="1224" y1="487" x2="1237" y2="483" stroke="#111" stroke-width="1.4" opacity=".45"/><line x1="334" y1="520" x2="347" y2="516" stroke="#111" stroke-width="1.4" opacity=".45"/><line x1="1150" y1="562" x2="1163" y2="558" stroke="#111" stroke-width="1.4" opacity=".45"/><line x1="700" y1="474" x2="713" y2="470" stroke="#111" stroke-width="1.4" opacity=".45"/><line x1="716" y1="615" x2="729" y2="611" stroke="#111" stroke-width="1.4" opacity=".45"/><line x1="1109" y1="507" x2="1122" y2="503" stroke="#111" stroke-width="1.4" opacity=".45"/><line x1="193" y1="466" x2="206" y2="462" stroke="#111" stroke-width="1.4" opacity=".45"/><line x1="1478" y1="626" x2="1491" y2="622" stroke="#111" stroke-width="1.4" opacity=".45"/><line x1="944" y1="596" x2="957" y2="592" stroke="#111" stroke-width="1.4" opacity=".45"/><line x1="977" y1="617" x2="990" y2="613" stroke="#111" stroke-width="1.4" opacity=".45"/><line x1="270" y1="512" x2="283" y2="508" stroke="#111" stroke-width="1.4" opacity=".45"/><line x1="304" y1="501" x2="317" y2="497" stroke="#111" stroke-width="1.4" opacity=".45"/><line x1="1070" y1="502" x2="1083" y2="498" stroke="#111" stroke-width="1.4" opacity=".45"/><line x1="81" y1="593" x2="94" y2="589" stroke="#111" stroke-width="1.4" opacity=".45"/><line x1="775" y1="464" x2="788" y2="460" stroke="#111" stroke-width="1.4" opacity=".45"/><line x1="297" y1="574" x2="310" y2="570" stroke="#111" stroke-width="1.4" opacity=".45"/><line x1="328" y1="510" x2="341" y2="506" stroke="#111" stroke-width="1.4" opacity=".45"/><line x1="1279" y1="569" x2="1292" y2="565" stroke="#111" stroke-width="1.4" opacity=".45"/><line x1="173" y1="471" x2="186" y2="467" stroke="#111" stroke-width="1.4" opacity=".45"/><line x1="315" y1="474" x2="328" y2="470" stroke="#111" stroke-width="1.4" opacity=".45"/><line x1="20" y1="489" x2="33" y2="485" stroke="#111" stroke-width="1.4" opacity=".45"/><line x1="1431" y1="518" x2="1444" y2="514" stroke="#111" stroke-width="1.4" opacity=".45"/><line x1="252" y1="474" x2="265" y2="470" stroke="#111" stroke-width="1.4" opacity=".45"/><line x1="966" y1="614" x2="979" y2="610" stroke="#111" stroke-width="1.4" opacity=".45"/><line x1="1149" y1="562" x2="1162" y2="558" stroke="#111" stroke-width="1.4" opacity=".45"/><line x1="1291" y1="596" x2="1304" y2="592" stroke="#111" stroke-width="1.4" opacity=".45"/><line x1="979" y1="592" x2="992" y2="588" stroke="#111" stroke-width="1.4" opacity=".45"/><line x1="385" y1="566" x2="398" y2="562" stroke="#111" stroke-width="1.4" opacity=".45"/><line x1="635" y1="462" x2="648" y2="458" stroke="#111" stroke-width="1.4" opacity=".45"/><line x1="1563" y1="633" x2="1576" y2="629" stroke="#111" stroke-width="1.4" opacity=".45"/><line x1="51" y1="580" x2="64" y2="576" stroke="#111" stroke-width="1.4" opacity=".45"/><line x1="1063" y1="617" x2="1076" y2="613" stroke="#111" stroke-width="1.4" opacity=".45"/><line x1="1069" y1="460" x2="1082" y2="456" stroke="#111" stroke-width="1.4" opacity=".45"/><line x1="1185" y1="463" x2="1198" y2="459" stroke="#111" stroke-width="1.4" opacity=".45"/><line x1="519" y1="461" x2="532" y2="457" stroke="#111" stroke-width="1.4" opacity=".45"/><line x1="407" y1="580" x2="420" y2="576" stroke="#111" stroke-width="1.4" opacity=".45"/><line x1="926" y1="487" x2="939" y2="483" stroke="#111" stroke-width="1.4" opacity=".45"/><line x1="191" y1="505" x2="204" y2="501" stroke="#111" stroke-width="1.4" opacity=".45"/><line x1="1184" y1="518" x2="1197" y2="514" stroke="#111" stroke-width="1.4" opacity=".45"/><line x1="1208" y1="478" x2="1221" y2="474" stroke="#111" stroke-width="1.4" opacity=".45"/><line x1="1253" y1="623" x2="1266" y2="619" stroke="#111" stroke-width="1.4" opacity=".45"/><line x1="627" y1="482" x2="640" y2="478" stroke="#111" stroke-width="1.4" opacity=".45"/><line x1="1156" y1="498" x2="1169" y2="494" stroke="#111" stroke-width="1.4" opacity=".45"/><line x1="1303" y1="474" x2="1316" y2="470" stroke="#111" stroke-width="1.4" opacity=".45"/><line x1="1341" y1="458" x2="1354" y2="454" stroke="#111" stroke-width="1.4" opacity=".45"/><line x1="855" y1="632" x2="868" y2="628" stroke="#111" stroke-width="1.4" opacity=".45"/><line x1="432" y1="497" x2="445" y2="493" stroke="#111" stroke-width="1.4" opacity=".45"/><line x1="798" y1="540" x2="811" y2="536" stroke="#111" stroke-width="1.4" opacity=".45"/><line x1="1108" y1="501" x2="1121" y2="497" stroke="#111" stroke-width="1.4" opacity=".45"/><line x1="489" y1="477" x2="502" y2="473" stroke="#111" stroke-width="1.4" opacity=".45"/><line x1="381" y1="510" x2="394" y2="506" stroke="#111" stroke-width="1.4" opacity=".45"/><line x1="471" y1="519" x2="484" y2="515" stroke="#111" stroke-width="1.4" opacity=".45"/><line x1="1210" y1="632" x2="1223" y2="628" stroke="#111" stroke-width="1.4" opacity=".45"/><line x1="170" y1="507" x2="183" y2="503" stroke="#111" stroke-width="1.4" opacity=".45"/><line x1="1280" y1="469" x2="1293" y2="465" stroke="#111" stroke-width="1.4" opacity=".45"/><line x1="791" y1="585" x2="804" y2="581" stroke="#111" stroke-width="1.4" opacity=".45"/><line x1="1445" y1="514" x2="1458" y2="510" stroke="#111" stroke-width="1.4" opacity=".45"/><line x1="1041" y1="591" x2="1054" y2="587" stroke="#111" stroke-width="1.4" opacity=".45"/><line x1="486" y1="578" x2="499" y2="574" stroke="#111" stroke-width="1.4" opacity=".45"/><line x1="402" y1="580" x2="415" y2="576" stroke="#111" stroke-width="1.4" opacity=".45"/><line x1="16" y1="474" x2="29" y2="470" stroke="#111" stroke-width="1.4" opacity=".45"/><line x1="594" y1="600" x2="607" y2="596" stroke="#111" stroke-width="1.4" opacity=".45"/><line x1="178" y1="557" x2="191" y2="553" stroke="#111" stroke-width="1.4" opacity=".45"/><line x1="462" y1="596" x2="475" y2="592" stroke="#111" stroke-width="1.4" opacity=".45"/><line x1="146" y1="464" x2="159" y2="460" stroke="#111" stroke-width="1.4" opacity=".45"/><line x1="1012" y1="470" x2="1025" y2="466" stroke="#111" stroke-width="1.4" opacity=".45"/><line x1="807" y1="511" x2="820" y2="507" stroke="#111" stroke-width="1.4" opacity=".45"/><line x1="779" y1="612" x2="792" y2="608" stroke="#111" stroke-width="1.4" opacity=".45"/><line x1="1584" y1="612" x2="1597" y2="608" stroke="#111" stroke-width="1.4" opacity=".45"/><line x1="904" y1="526" x2="917" y2="522" stroke="#111" stroke-width="1.4" opacity=".45"/><line x1="147" y1="587" x2="160" y2="583" stroke="#111" stroke-width="1.4" opacity=".45"/><line x1="273" y1="584" x2="286" y2="580" stroke="#111" stroke-width="1.4" opacity=".45"/><line x1="728" y1="466" x2="741" y2="462" stroke="#111" stroke-width="1.4" opacity=".45"/><line x1="1589" y1="604" x2="1602" y2="600" stroke="#111" stroke-width="1.4" opacity=".45"/><line x1="321" y1="573" x2="334" y2="569" stroke="#111" stroke-width="1.4" opacity=".45"/><line x1="22" y1="500" x2="35" y2="496" stroke="#111" stroke-width="1.4" opacity=".45"/><line x1="1148" y1="525" x2="1161" y2="521" stroke="#111" stroke-width="1.4" opacity=".45"/><line x1="874" y1="463" x2="887" y2="459" stroke="#111" stroke-width="1.4" opacity=".45"/><line x1="536" y1="545" x2="549" y2="541" stroke="#111" stroke-width="1.4" opacity=".45"/><line x1="1081" y1="572" x2="1094" y2="568" stroke="#111" stroke-width="1.4" opacity=".45"/><line x1="76" y1="634" x2="89" y2="630" stroke="#111" stroke-width="1.4" opacity=".45"/><line x1="364" y1="498" x2="377" y2="494" stroke="#111" stroke-width="1.4" opacity=".45"/><line x1="342" y1="580" x2="355" y2="576" stroke="#111" stroke-width="1.4" opacity=".45"/><line x1="253" y1="534" x2="266" y2="530" stroke="#111" stroke-width="1.4" opacity=".45"/><line x1="1493" y1="631" x2="1506" y2="627" stroke="#111" stroke-width="1.4" opacity=".45"/><line x1="124" y1="628" x2="137" y2="624" stroke="#111" stroke-width="1.4" opacity=".45"/><line x1="632" y1="459" x2="645" y2="455" stroke="#111" stroke-width="1.4" opacity=".45"/><line x1="130" y1="568" x2="143" y2="564" stroke="#111" stroke-width="1.4" opacity=".45"/><line x1="683" y1="486" x2="696" y2="482" stroke="#111" stroke-width="1.4" opacity=".45"/><line x1="500" y1="594" x2="513" y2="590" stroke="#111" stroke-width="1.4" opacity=".45"/><line x1="1002" y1="483" x2="1015" y2="479" stroke="#111" stroke-width="1.4" opacity=".45"/><line x1="754" y1="517" x2="767" y2="513" stroke="#111" stroke-width="1.4" opacity=".45"/><line x1="1421" y1="473" x2="1434" y2="469" stroke="#111" stroke-width="1.4" opacity=".45"/><line x1="560" y1="480" x2="573" y2="476" stroke="#111" stroke-width="1.4" opacity=".45"/><line x1="1545" y1="538" x2="1558" y2="534" stroke="#111" stroke-width="1.4" opacity=".45"/><line x1="640" y1="576" x2="653" y2="572" stroke="#111" stroke-width="1.4" opacity=".45"/><line x1="902" y1="565" x2="915" y2="561" stroke="#111" stroke-width="1.4" opacity=".45"/><line x1="1464" y1="584" x2="1477" y2="580" stroke="#111" stroke-width="1.4" opacity=".45"/><line x1="1374" y1="509" x2="1387" y2="505" stroke="#111" stroke-width="1.4" opacity=".45"/><line x1="1266" y1="515" x2="1279" y2="511" stroke="#111" stroke-width="1.4" opacity=".45"/><line x1="309" y1="601" x2="322" y2="597" stroke="#111" stroke-width="1.4" opacity=".45"/><line x1="761" y1="496" x2="774" y2="492" stroke="#111" stroke-width="1.4" opacity=".45"/><line x1="216" y1="605" x2="229" y2="601" stroke="#111" stroke-width="1.4" opacity=".45"/><line x1="659" y1="492" x2="672" y2="488" stroke="#111" stroke-width="1.4" opacity=".45"/><line x1="1352" y1="564" x2="1365" y2="560" stroke="#111" stroke-width="1.4" opacity=".45"/><line x1="621" y1="605" x2="634" y2="601" stroke="#111" stroke-width="1.4" opacity=".45"/><line x1="450" y1="509" x2="463" y2="505" stroke="#111" stroke-width="1.4" opacity=".45"/><line x1="504" y1="481" x2="517" y2="477" stroke="#111" stroke-width="1.4" opacity=".45"/><line x1="1068" y1="548" x2="1081" y2="544" stroke="#111" stroke-width="1.4" opacity=".45"/><line x1="1177" y1="493" x2="1190" y2="489" stroke="#111" stroke-width="1.4" opacity=".45"/><line x1="291" y1="517" x2="304" y2="513" stroke="#111" stroke-width="1.4" opacity=".45"/><line x1="1505" y1="464" x2="1518" y2="460" stroke="#111" stroke-width="1.4" opacity=".45"/><line x1="677" y1="488" x2="690" y2="484" stroke="#111" stroke-width="1.4" opacity=".45"/><line x1="443" y1="456" x2="456" y2="452" stroke="#111" stroke-width="1.4" opacity=".45"/><line x1="583" y1="629" x2="596" y2="625" stroke="#111" stroke-width="1.4" opacity=".45"/><line x1="1235" y1="574" x2="1248" y2="570" stroke="#111" stroke-width="1.4" opacity=".45"/><line x1="374" y1="509" x2="387" y2="505" stroke="#111" stroke-width="1.4" opacity=".45"/><line x1="142" y1="598" x2="155" y2="594" stroke="#111" stroke-width="1.4" opacity=".45"/><line x1="587" y1="500" x2="600" y2="496" stroke="#111" stroke-width="1.4" opacity=".45"/><line x1="13" y1="636" x2="26" y2="632" stroke="#111" stroke-width="1.4" opacity=".45"/><line x1="604" y1="595" x2="617" y2="591" stroke="#111" stroke-width="1.4" opacity=".45"/><line x1="1262" y1="465" x2="1275" y2="461" stroke="#111" stroke-width="1.4" opacity=".45"/><line x1="299" y1="562" x2="312" y2="558" stroke="#111" stroke-width="1.4" opacity=".45"/><line x1="253" y1="611" x2="266" y2="607" stroke="#111" stroke-width="1.4" opacity=".45"/><line x1="1112" y1="518" x2="1125" y2="514" stroke="#111" stroke-width="1.4" opacity=".45"/><line x1="183" y1="562" x2="196" y2="558" stroke="#111" stroke-width="1.4" opacity=".45"/><line x1="759" y1="518" x2="772" y2="514" stroke="#111" stroke-width="1.4" opacity=".45"/><line x1="1346" y1="622" x2="1359" y2="618" stroke="#111" stroke-width="1.4" opacity=".45"/><line x1="331" y1="588" x2="344" y2="584" stroke="#111" stroke-width="1.4" opacity=".45"/><line x1="411" y1="486" x2="424" y2="482" stroke="#111" stroke-width="1.4" opacity=".45"/><line x1="1059" y1="628" x2="1072" y2="624" stroke="#111" stroke-width="1.4" opacity=".45"/><line x1="661" y1="576" x2="674" y2="572" stroke="#111" stroke-width="1.4" opacity=".45"/><line x1="537" y1="567" x2="550" y2="563" stroke="#111" stroke-width="1.4" opacity=".45"/><line x1="1402" y1="538" x2="1415" y2="534" stroke="#111" stroke-width="1.4" opacity=".45"/><line x1="963" y1="635" x2="976" y2="631" stroke="#111" stroke-width="1.4" opacity=".45"/><line x1="118" y1="619" x2="131" y2="615" stroke="#111" stroke-width="1.4" opacity=".45"/><line x1="924" y1="525" x2="937" y2="521" stroke="#111" stroke-width="1.4" opacity=".45"/><line x1="1264" y1="623" x2="1277" y2="619" stroke="#111" stroke-width="1.4" opacity=".45"/><line x1="1212" y1="468" x2="1225" y2="464" stroke="#111" stroke-width="1.4" opacity=".45"/><line x1="815" y1="537" x2="828" y2="533" stroke="#111" stroke-width="1.4" opacity=".45"/><line x1="1375" y1="584" x2="1388" y2="580" stroke="#111" stroke-width="1.4" opacity=".45"/><line x1="1379" y1="498" x2="1392" y2="494" stroke="#111" stroke-width="1.4" opacity=".45"/><line x1="796" y1="483" x2="809" y2="479" stroke="#111" stroke-width="1.4" opacity=".45"/><line x1="675" y1="521" x2="688" y2="517" stroke="#111" stroke-width="1.4" opacity=".45"/><line x1="1396" y1="595" x2="1409" y2="591" stroke="#111" stroke-width="1.4" opacity=".45"/><line x1="1313" y1="489" x2="1326" y2="485" stroke="#111" stroke-width="1.4" opacity=".45"/><line x1="1270" y1="465" x2="1283" y2="461" stroke="#111" stroke-width="1.4" opacity=".45"/><line x1="624" y1="459" x2="637" y2="455" stroke="#111" stroke-width="1.4" opacity=".45"/><line x1="1004" y1="469" x2="1017" y2="465" stroke="#111" stroke-width="1.4" opacity=".45"/><line x1="1133" y1="586" x2="1146" y2="582" stroke="#111" stroke-width="1.4" opacity=".45"/><line x1="398" y1="526" x2="411" y2="522" stroke="#111" stroke-width="1.4" opacity=".45"/><line x1="1178" y1="486" x2="1191" y2="482" stroke="#111" stroke-width="1.4" opacity=".45"/><line x1="1545" y1="465" x2="1558" y2="461" stroke="#111" stroke-width="1.4" opacity=".45"/><line x1="566" y1="485" x2="579" y2="481" stroke="#111" stroke-width="1.4" opacity=".45"/><line x1="1018" y1="476" x2="1031" y2="472" stroke="#111" stroke-width="1.4" opacity=".45"/><line x1="160" y1="540" x2="173" y2="536" stroke="#111" stroke-width="1.4" opacity=".45"/><line x1="1396" y1="634" x2="1409" y2="630" stroke="#111" stroke-width="1.4" opacity=".45"/><line x1="1225" y1="561" x2="1238" y2="557" stroke="#111" stroke-width="1.4" opacity=".45"/><line x1="1200" y1="495" x2="1213" y2="491" stroke="#111" stroke-width="1.4" opacity=".45"/><line x1="1570" y1="508" x2="1583" y2="504" stroke="#111" stroke-width="1.4" opacity=".45"/><line x1="668" y1="548" x2="681" y2="544" stroke="#111" stroke-width="1.4" opacity=".45"/><line x1="1174" y1="463" x2="1187" y2="459" stroke="#111" stroke-width="1.4" opacity=".45"/><line x1="736" y1="546" x2="749" y2="542" stroke="#111" stroke-width="1.4" opacity=".45"/><line x1="247" y1="517" x2="260" y2="513" stroke="#111" stroke-width="1.4" opacity=".45"/><line x1="531" y1="457" x2="544" y2="453" stroke="#111" stroke-width="1.4" opacity=".45"/><line x1="171" y1="486" x2="184" y2="482" stroke="#111" stroke-width="1.4" opacity=".45"/><line x1="921" y1="514" x2="934" y2="510" stroke="#111" stroke-width="1.4" opacity=".45"/><line x1="184" y1="557" x2="197" y2="553" stroke="#111" stroke-width="1.4" opacity=".45"/><line x1="1036" y1="591" x2="1049" y2="587" stroke="#111" stroke-width="1.4" opacity=".45"/><line x1="81" y1="481" x2="94" y2="477" stroke="#111" stroke-width="1.4" opacity=".45"/><g fill="#fff" stroke="#111" stroke-width="2.07"><path d="M82.572 412.67 L81.7035 424.4 L83.3319 429 L83.952 431.07 L84.2758 452 L87.1094 452 L88 438.89 L88.8906 452 L91.7242 452 L92.048 431.07 L92.6681 429 L94.2965 424.4 L93.428 412.67 Z"/><rect x="86.7635" y="411.29" width="2.47296" height="2.07"/><ellipse cx="88" cy="408.99" rx="2.70848" ry="2.944"/></g><g fill="#fff" stroke="#111" stroke-width="2.205"><path d="M146.218 410.105 L145.293 422.6 L147.027 427.5 L147.688 429.705 L148.033 452 L151.051 452 L152 438.035 L152.949 452 L155.967 452 L156.312 429.705 L156.973 427.5 L158.707 422.6 L157.782 410.105 Z"/><rect x="150.683" y="408.635" width="2.63424" height="2.205"/><ellipse cx="152" cy="406.185" rx="2.88512" ry="3.136"/></g><g fill="#fff" stroke="#111" stroke-width="2.205"><path d="M210.218 410.105 L209.293 422.6 L211.027 427.5 L211.688 429.705 L212.033 452 L215.051 452 L216 438.035 L216.949 452 L219.967 452 L220.312 429.705 L220.973 427.5 L222.707 422.6 L221.782 410.105 Z"/><rect x="214.683" y="408.635" width="2.63424" height="2.205"/><ellipse cx="216" cy="406.185" rx="2.88512" ry="3.136"/></g><g fill="#fff" stroke="#111" stroke-width="2.07"><path d="M274.572 412.67 L273.704 424.4 L275.332 429 L275.952 431.07 L276.276 452 L279.109 452 L280 438.89 L280.891 452 L283.724 452 L284.048 431.07 L284.668 429 L286.296 424.4 L285.428 412.67 Z"/><rect x="278.764" y="411.29" width="2.47296" height="2.07"/><ellipse cx="280" cy="408.99" rx="2.70848" ry="2.944"/></g><g fill="#fff" stroke="#111" stroke-width="2.205"><path d="M338.218 410.105 L337.293 422.6 L339.027 427.5 L339.688 429.705 L340.033 452 L343.051 452 L344 438.035 L344.949 452 L347.967 452 L348.312 429.705 L348.973 427.5 L350.707 422.6 L349.782 410.105 Z"/><rect x="342.683" y="408.635" width="2.63424" height="2.205"/><ellipse cx="344" cy="406.185" rx="2.88512" ry="3.136"/></g><g fill="#fff" stroke="#111" stroke-width="2.07"><path d="M466.572 412.67 L465.704 424.4 L467.332 429 L467.952 431.07 L468.276 452 L471.109 452 L472 438.89 L472.891 452 L475.724 452 L476.048 431.07 L476.668 429 L478.296 424.4 L477.428 412.67 Z"/><rect x="470.764" y="411.29" width="2.47296" height="2.07"/><ellipse cx="472" cy="408.99" rx="2.70848" ry="2.944"/></g><g fill="#fff" stroke="#111" stroke-width="2.205"><path d="M530.218 410.105 L529.293 422.6 L531.027 427.5 L531.688 429.705 L532.033 452 L535.051 452 L536 438.035 L536.949 452 L539.967 452 L540.312 429.705 L540.973 427.5 L542.707 422.6 L541.782 410.105 Z"/><rect x="534.683" y="408.635" width="2.63424" height="2.205"/><ellipse cx="536" cy="406.185" rx="2.88512" ry="3.136"/></g><g fill="#fff" stroke="#111" stroke-width="2.205"><path d="M594.218 410.105 L593.293 422.6 L595.027 427.5 L595.688 429.705 L596.033 452 L599.051 452 L600 438.035 L600.949 452 L603.967 452 L604.312 429.705 L604.973 427.5 L606.707 422.6 L605.782 410.105 Z"/><rect x="598.683" y="408.635" width="2.63424" height="2.205"/><ellipse cx="600" cy="406.185" rx="2.88512" ry="3.136"/></g><g fill="#fff" stroke="#111" stroke-width="2.07"><path d="M658.572 412.67 L657.704 424.4 L659.332 429 L659.952 431.07 L660.276 452 L663.109 452 L664 438.89 L664.891 452 L667.724 452 L668.048 431.07 L668.668 429 L670.296 424.4 L669.428 412.67 Z"/><rect x="662.764" y="411.29" width="2.47296" height="2.07"/><ellipse cx="664" cy="408.99" rx="2.70848" ry="2.944"/></g><g fill="#fff" stroke="#111" stroke-width="2.205"><path d="M722.218 410.105 L721.293 422.6 L723.027 427.5 L723.688 429.705 L724.033 452 L727.051 452 L728 438.035 L728.949 452 L731.967 452 L732.312 429.705 L732.973 427.5 L734.707 422.6 L733.782 410.105 Z"/><rect x="726.683" y="408.635" width="2.63424" height="2.205"/><ellipse cx="728" cy="406.185" rx="2.88512" ry="3.136"/></g><g fill="#fff" stroke="#111" stroke-width="2.205"><path d="M786.218 410.105 L785.293 422.6 L787.027 427.5 L787.688 429.705 L788.033 452 L791.051 452 L792 438.035 L792.949 452 L795.967 452 L796.312 429.705 L796.973 427.5 L798.707 422.6 L797.782 410.105 Z"/><rect x="790.683" y="408.635" width="2.63424" height="2.205"/><ellipse cx="792" cy="406.185" rx="2.88512" ry="3.136"/></g><g fill="#fff" stroke="#111" stroke-width="2.07"><path d="M850.572 412.67 L849.704 424.4 L851.332 429 L851.952 431.07 L852.276 452 L855.109 452 L856 438.89 L856.891 452 L859.724 452 L860.048 431.07 L860.668 429 L862.296 424.4 L861.428 412.67 Z"/><rect x="854.764" y="411.29" width="2.47296" height="2.07"/><ellipse cx="856" cy="408.99" rx="2.70848" ry="2.944"/></g><g fill="#fff" stroke="#111" stroke-width="2.205"><path d="M914.218 410.105 L913.293 422.6 L915.027 427.5 L915.688 429.705 L916.033 452 L919.051 452 L920 438.035 L920.949 452 L923.967 452 L924.312 429.705 L924.973 427.5 L926.707 422.6 L925.782 410.105 Z"/><rect x="918.683" y="408.635" width="2.63424" height="2.205"/><ellipse cx="920" cy="406.185" rx="2.88512" ry="3.136"/></g><g fill="#fff" stroke="#111" stroke-width="2.205"><path d="M978.218 410.105 L977.293 422.6 L979.027 427.5 L979.688 429.705 L980.033 452 L983.051 452 L984 438.035 L984.949 452 L987.967 452 L988.312 429.705 L988.973 427.5 L990.707 422.6 L989.782 410.105 Z"/><rect x="982.683" y="408.635" width="2.63424" height="2.205"/><ellipse cx="984" cy="406.185" rx="2.88512" ry="3.136"/></g><g fill="#fff" stroke="#111" stroke-width="2.07"><path d="M1042.57 412.67 L1041.7 424.4 L1043.33 429 L1043.95 431.07 L1044.28 452 L1047.11 452 L1048 438.89 L1048.89 452 L1051.72 452 L1052.05 431.07 L1052.67 429 L1054.3 424.4 L1053.43 412.67 Z"/><rect x="1046.76" y="411.29" width="2.47296" height="2.07"/><ellipse cx="1048" cy="408.99" rx="2.70848" ry="2.944"/></g><g fill="#fff" stroke="#111" stroke-width="2.205"><path d="M1106.22 410.105 L1105.29 422.6 L1107.03 427.5 L1107.69 429.705 L1108.03 452 L1111.05 452 L1112 438.035 L1112.95 452 L1115.97 452 L1116.31 429.705 L1116.97 427.5 L1118.71 422.6 L1117.78 410.105 Z"/><rect x="1110.68" y="408.635" width="2.63424" height="2.205"/><ellipse cx="1112" cy="406.185" rx="2.88512" ry="3.136"/></g><g fill="#fff" stroke="#111" stroke-width="2.205"><path d="M1170.22 410.105 L1169.29 422.6 L1171.03 427.5 L1171.69 429.705 L1172.03 452 L1175.05 452 L1176 438.035 L1176.95 452 L1179.97 452 L1180.31 429.705 L1180.97 427.5 L1182.71 422.6 L1181.78 410.105 Z"/><rect x="1174.68" y="408.635" width="2.63424" height="2.205"/><ellipse cx="1176" cy="406.185" rx="2.88512" ry="3.136"/></g><g fill="#fff" stroke="#111" stroke-width="2.07"><path d="M1234.57 412.67 L1233.7 424.4 L1235.33 429 L1235.95 431.07 L1236.28 452 L1239.11 452 L1240 438.89 L1240.89 452 L1243.72 452 L1244.05 431.07 L1244.67 429 L1246.3 424.4 L1245.43 412.67 Z"/><rect x="1238.76" y="411.29" width="2.47296" height="2.07"/><ellipse cx="1240" cy="408.99" rx="2.70848" ry="2.944"/></g><g fill="#fff" stroke="#111" stroke-width="2.205"><path d="M1298.22 410.105 L1297.29 422.6 L1299.03 427.5 L1299.69 429.705 L1300.03 452 L1303.05 452 L1304 438.035 L1304.95 452 L1307.97 452 L1308.31 429.705 L1308.97 427.5 L1310.71 422.6 L1309.78 410.105 Z"/><rect x="1302.68" y="408.635" width="2.63424" height="2.205"/><ellipse cx="1304" cy="406.185" rx="2.88512" ry="3.136"/></g><g fill="#fff" stroke="#111" stroke-width="2.205"><path d="M1362.22 410.105 L1361.29 422.6 L1363.03 427.5 L1363.69 429.705 L1364.03 452 L1367.05 452 L1368 438.035 L1368.95 452 L1371.97 452 L1372.31 429.705 L1372.97 427.5 L1374.71 422.6 L1373.78 410.105 Z"/><rect x="1366.68" y="408.635" width="2.63424" height="2.205"/><ellipse cx="1368" cy="406.185" rx="2.88512" ry="3.136"/></g><g fill="#fff" stroke="#111" stroke-width="2.07"><path d="M1426.57 412.67 L1425.7 424.4 L1427.33 429 L1427.95 431.07 L1428.28 452 L1431.11 452 L1432 438.89 L1432.89 452 L1435.72 452 L1436.05 431.07 L1436.67 429 L1438.3 424.4 L1437.43 412.67 Z"/><rect x="1430.76" y="411.29" width="2.47296" height="2.07"/><ellipse cx="1432" cy="408.99" rx="2.70848" ry="2.944"/></g><g fill="#fff" stroke="#111" stroke-width="2.205"><path d="M1490.22 410.105 L1489.29 422.6 L1491.03 427.5 L1491.69 429.705 L1492.03 452 L1495.05 452 L1496 438.035 L1496.95 452 L1499.97 452 L1500.31 429.705 L1500.97 427.5 L1502.71 422.6 L1501.78 410.105 Z"/><rect x="1494.68" y="408.635" width="2.63424" height="2.205"/><ellipse cx="1496" cy="406.185" rx="2.88512" ry="3.136"/></g><g fill="#111"><path d="M402.96 404.12 L401.589 418.4 L403.258 424 L403.072 426.52 L403.466 452 L406.916 452 L408 436.04 L409.084 452 L412.534 452 L412.928 426.52 L414.624 424 L416.92 418.4 L416.176 404.12 Z"/><rect x="408.063" y="402.44" width="3.01056" height="2.52"/><ellipse cx="409.96" cy="399.64" rx="3.29728" ry="3.584"/></g></svg>